# xmcd
#
# Track frame offsets: 
#        150
#        16587
#        35763
#        52499
#        75449
#        89797
#        107538
#        129303
#        147847
#        169372
#        182314
#        197603
#
# Disc length: 2745 seconds
#
# Revision: 0
# Processed by: cddbd v1.5.2PL0 Copyright (c) Steve Scherf et al.
# Submitted via: ExactAudioCopyFreeDBPlugin 1.0
#
DISCID=9c0ab70c
DTITLE=Various Artist - Have Yourself A Gospel Little Christmas
DYEAR=2007
DGENRE=Holiday Christmas
TTITLE0=Melvin Couch and Company - Jesus Wonderful Child
TTITLE1=Brooklyn Allstars - Jingle Bells
TTITLE2=Martha B. Jones - Away In A Manger
TTITLE3=Charles Westmoreland Chorale - Come Let Us Adore Him
TTITLE4=Mighty Golden Voices - Deck The Halls
TTITLE5=Melvin Couch and Company - Go Tell It On The Mountain
TTITLE6=Brenda Holloway - Hark The Herald Angels Sing
TTITLE7=Brooklyn Allstars - Joy To The World
TTITLE8=Freda and Sherrie Payne - Little Town Of Bethlehem
TTITLE9=Herb Lance - O Come All Ye Faithful
TTITLE10=George Smith - Silent Night
TTITLE11=Rev. Raymond F. Williams - The Angels Sing
EXTD=
EXTT0=
EXTT1=
EXTT2=
EXTT3=
EXTT4=
EXTT5=
EXTT6=
EXTT7=
EXTT8=
EXTT9=
EXTT10=
EXTT11=
PLAYORDER=
